<?xml version="1.0" encoding="UTF-8"?>
<svg version="1.1" xmlns="http://www.w3.org/2000/svg" width="109" height="57">
<path d="M0 0 C3.96 0 7.92 0 12 0 C17.38269608 10.04843469 22.66007303 20.10707993 27.3984375 30.47827148 C29.07375864 34.12775725 30.85568866 37.603201 33 41 C38.43801924 30.40443243 43.50281225 19.66645199 48.40551758 8.8125 C48.85822021 7.81347656 49.31092285 6.81445312 49.77734375 5.78515625 C50.18202881 4.88676025 50.58671387 3.98836426 51.00366211 3.06274414 C52 1 52 1 53 0 C55.01964199 -0.07244053 57.04167124 -0.08377188 59.0625 -0.0625 C60.71958984 -0.04896484 60.71958984 -0.04896484 62.41015625 -0.03515625 C63.26480469 -0.02355469 64.11945313 -0.01195312 65 0 C66.19982781 4.72331216 66.16158002 9.32903881 66.16796875 14.16796875 C66.17296135 15.48200432 66.17296135 15.48200432 66.17805481 16.82258606 C66.18310302 18.66744463 66.18546379 20.51231227 66.18530273 22.35717773 C66.1875005 25.18813868 66.20570894 28.01871673 66.22460938 30.84960938 C66.22754142 32.64322783 66.22952748 34.43684814 66.23046875 36.23046875 C66.23765427 37.07941208 66.24483978 37.92835541 66.25224304 38.80302429 C66.22883858 44.77116142 66.22883858 44.77116142 64 47 C61.65234375 47.23046875 61.65234375 47.23046875 58.9375 47.1875 C58.03902344 47.18105469 57.14054687 47.17460937 56.21484375 47.16796875 C54 47 54 47 53 46 C52.76518307 43.81707226 52.58636677 41.62796826 52.4375 39.4375 C52.35371094 38.23996094 52.26992187 37.04242188 52.18359375 35.80859375 C52.12300781 34.88175781 52.06242187 33.95492187 52 33 C51.64695801 33.71655762 51.29391602 34.43311523 50.93017578 35.17138672 C49.33261919 38.4080017 47.72889367 41.64152099 46.125 44.875 C45.56941406 46.00292969 45.01382813 47.13085938 44.44140625 48.29296875 C43.90644531 49.36933594 43.37148437 50.44570312 42.8203125 51.5546875 C42.32805176 52.54968262 41.83579102 53.54467773 41.32861328 54.56982422 C40 57 40 57 38 59 C35.6171875 59.1953125 35.6171875 59.1953125 32.875 59.125 C31.96492188 59.10695312 31.05484375 59.08890625 30.1171875 59.0703125 C29.41851562 59.04710937 28.71984375 59.02390625 28 59 C26.06074205 55.45929322 24.12390879 51.91726567 22.1875 48.375 C21.64029297 47.37597656 21.09308594 46.37695312 20.52929688 45.34765625 C19.99755859 44.37441406 19.46582031 43.40117187 18.91796875 42.3984375 C18.43094482 41.50817871 17.9439209 40.61791992 17.44213867 39.70068359 C15.90711667 36.826058 14.44531137 33.92061624 13 31 C12.97494385 31.87325928 12.9498877 32.74651855 12.92407227 33.64624023 C12.82912291 36.87602552 12.72987971 40.10564154 12.62768555 43.33520508 C12.58428566 44.73489199 12.54261436 46.13463359 12.50268555 47.53442383 C12.44510555 49.54261495 12.38086 51.55061149 12.31640625 53.55859375 C12.27974854 54.76829834 12.24309082 55.97800293 12.20532227 57.22436523 C12 60 12 60 11 61 C7.37 61 3.74 61 0 61 C0 40.87 0 20.74 0 0 Z " fill="#FEFEFE" transform="translate(192,182)"/>
<path d="M0 0 C0.91330078 0.00902344 1.82660156 0.01804688 2.76757812 0.02734375 C4.99117319 0.05062747 7.21418677 0.0833229 9.4375 0.125 C10.73199495 4.00848484 10.56953312 7.03197336 10.4375 11.125 C8.35233184 13.21016816 3.83702836 12.40129265 0.9375 12.5 C-5.76116331 12.789615 -11.32375615 13.49816048 -17.5625 16.125 C-18.5525 16.455 -19.5425 16.785 -20.5625 17.125 C-23.54432174 23.8591142 -23.93749731 32.40625924 -21.875 39.484375 C-19.69210436 43.74102151 -16.97211848 45.57346757 -12.5625 47.125 C-9.23754814 47.91144071 -5.93132577 48.53317926 -2.5625 49.125 C-2.5625 44.505 -2.5625 39.885 -2.5625 35.125 C-6.5225 35.125 -10.4825 35.125 -14.5625 35.125 C-14.5625 30.835 -14.5625 26.545 -14.5625 22.125 C-10.58328906 22.09817386 -6.60425659 22.07824607 -2.625 22.0625 C-1.48869141 22.05412109 -0.35238281 22.04574219 0.81835938 22.03710938 C1.89794922 22.03388672 2.97753906 22.03066406 4.08984375 22.02734375 C5.59019165 22.01948853 5.59019165 22.01948853 7.12084961 22.01147461 C9.4375 22.125 9.4375 22.125 10.4375 23.125 C10.55086626 25.76786274 10.60167761 28.38361456 10.60546875 31.02734375 C10.61046135 32.21669273 10.61046135 32.21669273 10.61555481 33.43006897 C10.62062726 35.11051858 10.62296304 36.79097829 10.62280273 38.47143555 C10.62498786 41.04818259 10.64313609 43.62450076 10.66210938 46.20117188 C10.66504345 47.8307277 10.66702815 49.46028556 10.66796875 51.08984375 C10.67515427 51.86384018 10.68233978 52.63783661 10.68974304 53.43528748 C10.66632253 58.89617747 10.66632253 58.89617747 8.4375 61.125 C5.60157596 61.35485911 2.89882135 61.45734447 0.0625 61.4375 C-0.74880371 61.43258545 -1.56010742 61.4276709 -2.39599609 61.42260742 C-11.92926219 61.2383669 -22.33492958 59.95014445 -29.5625 53.125 C-37.03325117 43.05501593 -37.62497671 33.31522476 -36.5625 21.125 C-34.53819597 12.65372771 -29.032778 7.92146815 -22.015625 3.23828125 C-14.94099131 0.02765927 -7.64794261 -0.14588885 0 0 Z " fill="#FEFEFE" transform="translate(296.5625,181.875)"/>
<path d="M0 0 C2.31 0 4.62 0 7 0 C8.65 3.63 10.3 7.26 12 11 C13.65 7.37 15.3 3.74 17 0 C19.31 0 21.62 0 24 0 C24.02887814 3.47914941 24.04675687 6.95826831 24.0625 10.4375 C24.07087891 11.43072266 24.07925781 12.42394531 24.08789062 13.44726562 C24.09272461 14.86362305 24.09272461 14.86362305 24.09765625 16.30859375 C24.10551147 17.62041626 24.10551147 17.62041626 24.11352539 18.95874023 C24 21 24 21 23 22 C21.33382885 22.04063832 19.66611905 22.042721 18 22 C17.67 20.02 17.34 18.04 17 16 C16.01 17.98 15.02 19.96 14 22 C11.625 21.8125 11.625 21.8125 9 21 C7.6875 18.4375 7.6875 18.4375 7 16 C6.34 17.98 5.68 19.96 5 22 C3.35 22 1.7 22 0 22 C0 14.74 0 7.48 0 0 Z " fill="#FFFFFF" transform="translate(99,261)"/>
<path d="M0 0 C1.98 0 3.96 0 6 0 C7.8984375 1.96875 7.8984375 1.96875 9.375 4.5 C9.87773437 5.3353125 10.38046875 6.170625 10.8984375 7.03125 C11.26195312 7.6809375 11.62546875 8.330625 12 9 C12.33 6.03 12.66 3.06 13 0 C14.99954746 -0.04254356 17.00041636 -0.04080783 19 0 C20 1 20 1 20.11352539 2.94946289 C20.10828857 3.7821167 20.10305176 4.61477051 20.09765625 5.47265625 C20.09443359 6.37177734 20.09121094 7.27089844 20.08789062 8.19726562 C20.07951172 9.14279297 20.07113281 10.08832031 20.0625 11.0625 C20.05798828 12.01189453 20.05347656 12.96128906 20.04882812 13.93945312 C20.0370011 16.29303065 20.02052025 18.64648477 20 21 C14.72788656 21.34571236 14.72788656 21.34571236 12 21 C10.125 19.25 10.125 19.25 9 17 C8.608125 16.2575 8.21625 15.515 7.8125 14.75 C7.544375 14.1725 7.27625 13.595 7 13 C6.67 15.64 6.34 18.28 6 21 C4.02 21 2.04 21 0 21 C0 14.07 0 7.14 0 0 Z " fill="#FEFEFE" transform="translate(356,261)"/>
<path d="M0 0 C2.31 0 4.62 0 7 0 C7.33 1.32 7.66 2.64 8 4 C8.66 4 9.32 4 10 4 C11.625 6.5 11.625 6.5 13 9 C13.33 6.03 13.66 3.06 14 0 C15.98 0 17.96 0 20 0 C20 6.93 20 13.86 20 21 C13 21 13 21 11.00390625 19.03125 C10.52824219 18.1959375 10.05257813 17.360625 9.5625 16.5 C9.06878906 15.6646875 8.57507813 14.829375 8.06640625 13.96875 C7.71449219 13.3190625 7.36257813 12.669375 7 12 C7 14.97 7 17.94 7 21 C4.69 21 2.38 21 0 21 C0 14.07 0 7.14 0 0 Z " fill="#FFFFFF" transform="translate(284,261)"/>
<path d="M0 0 C3 1.25 3 1.25 5 3 C5.8125 5.1875 5.8125 5.1875 6 7 C1.85860022 8.18325708 -0.1010304 7.64167141 -4 6 C-4.99 6.33 -5.98 6.66 -7 7 C-7.79953138 10.28696233 -8.09658936 11.71023192 -7 15 C-5.02 15 -3.04 15 -1 15 C-2.65 14.67 -4.3 14.34 -6 14 C-6 12.35 -6 10.7 -6 9 C-2.04 9 1.92 9 6 9 C7 14 7 14 6.4375 16.0625 C4.3137505 18.92494498 2.14726521 20.33729385 -1 22 C-4.90628989 22.47971981 -7.21577899 22.34854267 -10.8125 20.75 C-13.668654 18.4650768 -14.77905317 16.43615442 -15.3359375 12.81640625 C-15.40703353 8.71416548 -15.35398847 6.56638155 -13.125 3 C-9.13237958 -0.75776039 -5.26617873 -0.5093368 0 0 Z " fill="#FFFFFF" transform="translate(249,261)"/>
<path d="M0 0 C1.99954746 -0.04254356 4.00041636 -0.04080783 6 0 C7 1 7 1 7.0625 4.5625 C7.041875 5.696875 7.02125 6.83125 7 8 C8.98 8 10.96 8 13 8 C13 5.36 13 2.72 13 0 C14.98 0 16.96 0 19 0 C19.02887814 3.47914941 19.04675687 6.95826831 19.0625 10.4375 C19.07087891 11.43072266 19.07925781 12.42394531 19.08789062 13.44726562 C19.09272461 14.86362305 19.09272461 14.86362305 19.09765625 16.30859375 C19.10551147 17.62041626 19.10551147 17.62041626 19.11352539 18.95874023 C19 21 19 21 18 22 C16.33382885 22.04063832 14.66611905 22.042721 13 22 C13 19.36 13 16.72 13 14 C11.02 14 9.04 14 7 14 C7.020625 15.134375 7.04125 16.26875 7.0625 17.4375 C7 21 7 21 6 22 C3.5 22.125 3.5 22.125 1 22 C0 21 0 21 -0.11352539 18.95874023 C-0.10828857 18.08419189 -0.10305176 17.20964355 -0.09765625 16.30859375 C-0.09443359 15.36435547 -0.09121094 14.42011719 -0.08789062 13.44726562 C-0.07951172 12.45404297 -0.07113281 11.46082031 -0.0625 10.4375 C-0.05798828 9.44041016 -0.05347656 8.44332031 -0.04882812 7.41601562 C-0.03700007 4.94395151 -0.02051849 2.47200482 0 0 Z " fill="#FDFDFD" transform="translate(211,261)"/>
<path d="M0 0 C2.99918794 1.30589641 3.80494838 2.31106176 6 5 C7.35142287 9.22224208 7.45654657 12.68742862 6 16.875 C2.57441532 20.51468372 -1.24840288 21.7547764 -6.125 22.4375 C-9.84012679 21.87215462 -11.3938815 20.67851069 -14 18 C-16.20598493 14.39020648 -16.35205049 11.11230291 -15.65625 6.9375 C-14.74108555 4.23558592 -13.19204638 2.48909047 -10.875 0.8515625 C-7.23254702 -0.80271823 -3.87408009 -0.83707802 0 0 Z M-8.8125 6.6875 C-10.23122995 8.95801496 -10.23122995 8.95801496 -9.8125 11.625 C-9.14323449 14.15020365 -9.14323449 14.15020365 -7 16 C-4.5 16.33333333 -4.5 16.33333333 -2 16 C0.3721969 14.05541686 0.3721969 14.05541686 0.3125 10.5 C0.209375 9.345 0.10625 8.19 0 7 C-3.37879626 4.74746916 -5.58736919 3.68479201 -8.8125 6.6875 Z " fill="#FCFCFC" transform="translate(274,261)"/>
<path d="M0 0 C10.87832393 -0.48348106 10.87832393 -0.48348106 15.625 1.5625 C18.66666466 4.68420846 19.48640203 6.6711028 20 11 C18.73466806 14.99578506 17.47151717 18.52562074 14 21 C9.30736629 21.40971773 4.71873609 21.12987347 0 21 C0 14.07 0 7.14 0 0 Z M6 5 C5.67 8.63 5.34 12.26 5 16 C7.91634129 16.2502157 7.91634129 16.2502157 11 16 C13.15502531 12.76746204 13.46856135 11.74849077 13 8 C11.85353452 6.10338257 11.85353452 6.10338257 10 5 C8.68 5 7.36 5 6 5 Z " fill="#FFFFFF" transform="translate(309,261)"/>
<path d="M0 0 C1.98 0 3.96 0 6 0 C6.33 1.98 6.66 3.96 7 6 C7.515625 5.01 8.03125 4.02 8.5625 3 C9.366875 2.01 10.17125 1.02 11 0 C14.75 -0.375 14.75 -0.375 18 0 C16.7580393 3.43927579 15.44259716 6.25207819 13 9 C12.34 9 11.68 9 11 9 C13.41952583 13.20233434 16.15555353 17.07927649 19 21 C16.30586287 21.74837142 14.57025639 22.18449471 11.875 21.3125 C9.72097839 19.80468487 8.45178261 18.17767392 7 16 C6.34 17.98 5.68 19.96 5 22 C3.35 22 1.7 22 0 22 C0 14.74 0 7.48 0 0 Z " fill="#FFFFFF" transform="translate(151,261)"/>
<path d="M0 0 C2.5625 1.25 2.5625 1.25 4 3 C4 4.32 4 5.64 4 7 C1.69 7 -0.62 7 -3 7 C-3 6.34 -3 5.68 -3 5 C-3.66 5 -4.32 5 -5 5 C-5 5.99 -5 6.98 -5 8 C-4.0925 8.061875 -3.185 8.12375 -2.25 8.1875 C1 9 1 9 3.5 11.1875 C5 14 5 14 4.4375 17.1875 C3 20 3 20 0 22 C-7.04191617 22.67065868 -7.04191617 22.67065868 -10.5 20.25 C-12 18 -12 18 -12 14 C-10.68 13.67 -9.36 13.34 -8 13 C-8.66 12.649375 -9.32 12.29875 -10 11.9375 C-12 10 -12 10 -12.4375 6.5 C-12 3 -12 3 -10.75 1.3046875 C-7.54114391 -1.08762931 -3.81966219 -0.51020759 0 0 Z M-6 14 C-5.67 14.99 -5.34 15.98 -5 17 C-4.01 16.67 -3.02 16.34 -2 16 C-2.33 15.34 -2.66 14.68 -3 14 C-3.99 14 -4.98 14 -6 14 Z " fill="#FFFFFF" transform="translate(203,261)"/>
<path d="M0 0 C1.98 0 3.96 0 6 0 C6.33 4.95 6.66 9.9 7 15 C8.32 15.33 9.64 15.66 11 16 C11.33 10.72 11.66 5.44 12 0 C13.98 0 15.96 0 18 0 C18.16262928 2.73156959 18.28110686 5.45342122 18.375 8.1875 C18.45041016 9.34088867 18.45041016 9.34088867 18.52734375 10.51757812 C18.67129263 16.10759283 18.67129263 16.10759283 16.76293945 18.64453125 C14.02181952 21.04113884 12.03247477 21.99430267 8.4375 22.625 C3.98120393 21.81476435 2.74018308 20.58081552 0 17 C-0.59118514 14.03214214 -0.4765477 11.19840634 -0.3125 8.1875 C-0.28994141 7.39923828 -0.26738281 6.61097656 -0.24414062 5.79882812 C-0.18554161 3.86506071 -0.09586827 1.93227833 0 0 Z " fill="#FFFFFF" transform="translate(128,261)"/>
<path d="M0 0 C2.31 0 4.62 0 7 0 C9.96415819 6.9241798 12.72564796 13.81783567 15 21 C12.69 21 10.38 21 8 21 C7.67 20.01 7.34 19.02 7 18 C4.69 18 2.38 18 0 18 C-0.33 18.99 -0.66 19.98 -1 21 C-2.98 21 -4.96 21 -7 21 C-6.38169051 15.97525707 -4.87023224 11.75279506 -2.9375 7.125 C-2.65583984 6.43664062 -2.37417969 5.74828125 -2.08398438 5.0390625 C-1.39484734 3.35710091 -0.69819202 1.67822303 0 0 Z M3 8 C2.67 9.65 2.34 11.3 2 13 C2.99 13 3.98 13 5 13 C4.67 11.35 4.34 9.7 4 8 C3.67 8 3.34 8 3 8 Z " fill="#FFFFFF" transform="translate(338,261)"/>
<path d="M0 0 C4.62 0 9.24 0 14 0 C14 1.65 14 3.3 14 5 C11.69 5 9.38 5 7 5 C7 5.99 7 6.98 7 8 C8.98 8 10.96 8 13 8 C13.042721 9.66611905 13.04063832 11.33382885 13 13 C12 14 12 14 9.4375 14.0625 C8.633125 14.041875 7.82875 14.02125 7 14 C7 14.99 7 15.98 7 17 C9.31 17 11.62 17 14 17 C13.67 18.65 13.34 20.3 13 22 C11.02090602 22.02686553 9.04171029 22.04633375 7.0625 22.0625 C5.96035156 22.07410156 4.85820312 22.08570313 3.72265625 22.09765625 C1 22 1 22 0 21 C-0.08685603 19.43827255 -0.10702219 17.87270656 -0.09765625 16.30859375 C-0.09443359 15.36435547 -0.09121094 14.42011719 -0.08789062 13.44726562 C-0.07951172 12.45404297 -0.07113281 11.46082031 -0.0625 10.4375 C-0.05798828 9.44041016 -0.05347656 8.44332031 -0.04882812 7.41601562 C-0.03700023 4.94398513 -0.01906415 2.47198528 0 0 Z " fill="#FCFDFD" transform="translate(173,261)"/>
<path d="M0 0 C4.62 0 9.24 0 14 0 C13.67 1.65 13.34 3.3 13 5 C10.69 5 8.38 5 6 5 C6 5.99 6 6.98 6 8 C8.31 8 10.62 8 13 8 C13.042721 9.66611905 13.04063832 11.33382885 13 13 C12 14 12 14 8.9375 14.0625 C7.968125 14.041875 6.99875 14.02125 6 14 C6 14.99 6 15.98 6 17 C8.64 17 11.28 17 14 17 C14 18.32 14 19.64 14 21 C9.38 21 4.76 21 0 21 C0 14.07 0 7.14 0 0 Z " fill="#FFFFFF" transform="translate(380,261)"/>
<defs>
<linearGradient id="paint0_linear_2205_14" x1="219.1" y1="39.9983" x2="202.599" y2="91.4037" gradientUnits="userSpaceOnUse">
<stop stop-color="#DF8908"/>
<stop offset="1" stop-color="#B415FF"/>
</linearGradient>
</defs>

</svg>
